# This file uses centimeters as units for non-parametric coordinates.

mtllib MagicalTower.mtl
g default
v 0.965926 0.694093 -0.258819
v 0.707107 0.694093 -0.707107
v 0.258819 0.694093 -0.965926
v -0.258819 0.694093 -0.965926
v -0.707107 0.694093 -0.707107
v -0.965926 0.694093 -0.258819
v -0.965926 0.694093 0.258819
v -0.707107 0.694093 0.707107
v -0.258819 0.694093 0.965926
v 0.258819 0.694093 0.965926
v 0.707107 0.694093 0.707107
v 0.965926 0.694093 0.258819
v 0.965926 1.167783 -0.258819
v 0.707107 1.167783 -0.707107
v 0.258819 1.167783 -0.965926
v -0.258819 1.167783 -0.965926
v -0.707107 1.167783 -0.707107
v -0.965926 1.167783 -0.258819
v -0.965926 1.167783 0.258819
v -0.707107 1.167783 0.707107
v -0.258819 1.167783 0.965926
v 0.258819 1.167783 0.965926
v 0.707107 1.167783 0.707107
v 0.965926 1.167783 0.258819
v 0.965926 1.874901 -0.258819
v 0.707107 1.874901 -0.707107
v 0.258819 1.874901 -0.965926
v -0.258819 1.874901 -0.965926
v -0.707107 1.874901 -0.707107
v -0.965926 1.874901 -0.258819
v -0.965926 1.874901 0.258819
v -0.707107 1.874901 0.707107
v -0.258819 1.874901 0.965926
v 0.258819 1.874901 0.965926
v 0.707107 1.874901 0.707107
v 0.965926 1.874901 0.258819
v 1.448255 1.874901 -0.388059
v 1.060196 1.874901 -1.060196
v 0.388059 1.874901 -1.448255
v -0.388059 1.874901 -1.448255
v -1.060196 1.874901 -1.060196
v -1.448255 1.874901 -0.388059
v -1.448255 1.874901 0.388059
v -1.060196 1.874901 1.060196
v -0.388059 1.874901 1.448255
v 0.388059 1.874901 1.448255
v 1.060196 1.874901 1.060196
v 1.448255 1.874901 0.388059
v 0.000000 3.289790 0.000000
v 0.590238 0.694093 -0.504685
v 0.141951 0.694093 -0.763504
v 0.141951 1.167783 -0.763504
v 0.590238 1.167783 -0.504685
v -0.732189 0.694093 -0.258819
v -0.732189 0.694093 0.258819
v -0.732189 1.167783 0.258819
v -0.732189 1.167783 -0.258819
v 0.141951 0.694093 0.763504
v 0.590239 0.694093 0.504685
v 0.590239 1.167783 0.504685
v 0.141951 1.167783 0.763504
v 0.965926 -0.005269 -0.258819
v 0.707107 -0.005269 -0.707107
v 0.258819 -0.005269 -0.965926
v -0.258819 -0.005269 -0.965926
v -0.707107 -0.005269 -0.707107
v -0.965926 -0.005269 -0.258819
v -0.965926 -0.005269 0.258819
v -0.707107 -0.005269 0.707107
v -0.258819 -0.005269 0.965926
v 0.258819 -0.005269 0.965926
v 0.707107 -0.005269 0.707107
v 0.965926 -0.005269 0.258819
vt 0.374956 0.538072
vt 0.395642 0.538067
vt 0.395833 0.613252
vt 0.375000 0.613252
vt 0.395833 0.538064
vt 0.416667 0.538064
vt 0.416667 0.613252
vt 0.395833 0.613252
vt 0.416867 0.538067
vt 0.437359 0.538067
vt 0.437500 0.613252
vt 0.416667 0.613252
vt 0.458486 0.538067
vt 0.458333 0.613252
vt 0.478978 0.538067
vt 0.479167 0.613252
vt 0.479167 0.538064
vt 0.500000 0.538064
vt 0.500000 0.613252
vt 0.479167 0.613252
vt 0.500217 0.538066
vt 0.520685 0.538067
vt 0.520833 0.613252
vt 0.500000 0.613252
vt 0.541785 0.538068
vt 0.541667 0.613252
vt 0.562308 0.538067
vt 0.562500 0.613252
vt 0.562500 0.538064
vt 0.583333 0.538064
vt 0.583333 0.613252
vt 0.562500 0.613252
vt 0.583530 0.538067
vt 0.603991 0.538067
vt 0.604167 0.613252
vt 0.583333 0.613252
vt 0.624998 0.538068
vt 0.625000 0.613252
vt 0.395833 0.688440
vt 0.375000 0.688440
vt 0.416667 0.688440
vt 0.437500 0.688440
vt 0.458333 0.688440
vt 0.479167 0.688440
vt 0.500000 0.688440
vt 0.520833 0.688440
vt 0.541667 0.688440
vt 0.562500 0.688440
vt 0.583333 0.688440
vt 0.604167 0.688440
vt 0.625000 0.688440
vt 0.000000 0.000000
vt 1.000000 0.000000
vt 1.076736 0.999785
vt -0.064926 0.999752
vt 0.000000 0.000000
vt 1.000000 0.000000
vt 1.064926 0.999752
vt -0.076736 0.999785
vt 0.000000 0.000000
vt 1.000000 0.000000
vt 1.064926 0.999752
vt -0.076736 0.999785
vt 0.000000 0.000000
vt 1.000000 0.000000
vt 1.064926 0.999752
vt -0.076736 0.999785
vt 0.000000 0.000000
vt 1.000000 0.000000
vt 1.064926 0.999752
vt -0.076736 0.999785
vt 0.000000 0.000000
vt 1.000000 0.000000
vt 1.064926 0.999752
vt -0.076736 0.999785
vt 0.000000 0.000000
vt 1.000000 0.000000
vt 1.064926 0.999752
vt -0.076736 0.999785
vt 0.000000 0.000000
vt 1.000000 0.000000
vt 1.064926 0.999752
vt -0.076736 0.999785
vt 0.000000 0.000000
vt 1.000000 0.000000
vt 1.064926 0.999752
vt -0.076736 0.999785
vt 0.000000 0.000000
vt 1.000000 0.000000
vt 1.064926 0.999752
vt -0.076736 0.999785
vt 0.000000 0.000000
vt 1.000000 0.000000
vt 1.064926 0.999752
vt -0.076736 0.999785
vt 0.000000 0.000000
vt 1.000000 0.000000
vt 1.064926 0.999752
vt -0.076736 0.999785
vt 0.251121 0.502102
vt 0.291869 0.500485
vt 0.500000 1.000000
vt 0.333489 0.500484
vt 0.375115 0.500484
vt 0.416741 0.500484
vt 0.458368 0.500484
vt 0.499994 0.500484
vt 0.541620 0.500484
vt 0.583247 0.500484
vt 0.624873 0.500484
vt 0.666499 0.500484
vt 0.708126 0.500484
vt 0.748879 0.502102
vt 0.375000 0.613252
vt 0.395833 0.613252
vt 0.395833 0.687611
vt 0.375004 0.687607
vt 0.416667 0.613252
vt 0.416667 0.687611
vt 0.437500 0.613252
vt 0.437500 0.687611
vt 0.458333 0.613252
vt 0.458333 0.687611
vt 0.479167 0.613252
vt 0.479167 0.687611
vt 0.500000 0.613252
vt 0.500000 0.687612
vt 0.520833 0.613252
vt 0.520833 0.687611
vt 0.541667 0.613252
vt 0.541667 0.687611
vt 0.562500 0.613252
vt 0.562500 0.687611
vt 0.583333 0.613252
vt 0.583333 0.687611
vt 0.604167 0.613252
vt 0.604166 0.687611
vt 0.625000 0.613252
vt 0.624996 0.687608
vn 0.866025 0.000000 -0.500000
vn 0.866025 0.000000 -0.500000
vn 0.866025 0.000000 -0.500000
vn 0.866025 0.000000 -0.500000
vn 0.500000 0.000000 -0.866025
vn 0.500000 0.000000 -0.866025
vn 0.500000 0.000000 -0.866025
vn 0.500000 0.000000 -0.866025
vn 0.000000 0.000000 -1.000000
vn 0.000000 0.000000 -1.000000
vn 0.000000 0.000000 -1.000000
vn 0.000000 0.000000 -1.000000
vn -0.500000 0.000000 -0.866025
vn -0.500000 0.000000 -0.866025
vn -0.500000 0.000000 -0.866025
vn -0.500000 0.000000 -0.866025
vn -0.866025 0.000000 -0.500000
vn -0.866025 0.000000 -0.500000
vn -0.866026 0.000000 -0.500000
vn -0.866026 0.000000 -0.500000
vn -1.000000 0.000000 0.000000
vn -1.000000 0.000000 0.000000
vn -1.000000 0.000000 0.000000
vn -1.000000 0.000000 0.000000
vn -0.866025 0.000000 0.500000
vn -0.866025 0.000000 0.500000
vn -0.866025 0.000000 0.500000
vn -0.866025 0.000000 0.500000
vn -0.500000 0.000000 0.866025
vn -0.500000 0.000000 0.866025
vn -0.500000 0.000000 0.866025
vn -0.500000 0.000000 0.866025
vn -0.000000 0.000000 1.000000
vn -0.000000 0.000000 1.000000
vn -0.000000 0.000000 1.000000
vn -0.000000 0.000000 1.000000
vn 0.500000 0.000000 0.866026
vn 0.500000 0.000000 0.866026
vn 0.500000 0.000000 0.866026
vn 0.500000 0.000000 0.866026
vn 0.866025 0.000000 0.500000
vn 0.866025 0.000000 0.500000
vn 0.866025 0.000000 0.500000
vn 0.866025 0.000000 0.500000
vn 1.000000 0.000000 0.000000
vn 1.000000 0.000000 0.000000
vn 1.000000 0.000000 0.000000
vn 1.000000 0.000000 0.000000
vn 0.866025 0.000000 -0.500000
vn 0.866025 0.000000 -0.500000
vn 0.500000 0.000000 -0.866025
vn 0.500000 0.000000 -0.866025
vn 0.500000 0.000000 -0.866025
vn 0.500000 0.000000 -0.866025
vn 0.000000 0.000000 -1.000000
vn 0.000000 0.000000 -1.000000
vn -0.500000 0.000000 -0.866025
vn -0.500000 0.000000 -0.866025
vn -0.866026 0.000000 -0.500000
vn -0.866026 0.000000 -0.500000
vn -1.000000 0.000000 -0.000000
vn -1.000000 0.000000 -0.000000
vn -1.000000 0.000000 -0.000000
vn -1.000000 0.000000 -0.000000
vn -0.866025 0.000000 0.500000
vn -0.866025 0.000000 0.500000
vn -0.500000 0.000000 0.866025
vn -0.500000 0.000000 0.866025
vn -0.000000 0.000000 1.000000
vn -0.000000 0.000000 1.000000
vn 0.500000 0.000000 0.866025
vn 0.500000 0.000000 0.866025
vn 0.500000 0.000000 0.866025
vn 0.500000 0.000000 0.866025
vn 0.866026 0.000000 0.500000
vn 0.866026 0.000000 0.500000
vn 1.000000 0.000000 0.000000
vn 1.000000 0.000000 0.000000
vn 0.000000 -1.000000 -0.000000
vn 0.000000 -1.000000 -0.000000
vn 0.000000 -1.000000 -0.000000
vn 0.000000 -1.000000 -0.000000
vn 0.000000 -1.000000 0.000000
vn 0.000000 -1.000000 0.000000
vn 0.000000 -1.000000 -0.000000
vn 0.000000 -1.000000 -0.000000
vn 0.000000 -1.000000 -0.000000
vn 0.000000 -1.000000 -0.000000
vn 0.000000 -1.000000 -0.000000
vn 0.000000 -1.000000 -0.000000
vn 0.000000 -1.000000 0.000000
vn 0.000000 -1.000000 0.000000
vn 0.000000 -1.000000 0.000000
vn 0.000000 -1.000000 0.000000
vn 0.000000 -1.000000 -0.000000
vn 0.000000 -1.000000 -0.000000
vn 0.000000 -1.000000 0.000000
vn 0.000000 -1.000000 0.000000
vn 0.000000 -1.000000 0.000000
vn 0.000000 -1.000000 0.000000
vn 0.000000 -1.000000 0.000000
vn 0.000000 -1.000000 0.000000
vn 0.605195 0.715299 -0.349409
vn 0.605195 0.715299 -0.349409
vn 0.605195 0.715299 -0.349409
vn 0.349409 0.715298 -0.605195
vn 0.349409 0.715298 -0.605195
vn 0.349409 0.715298 -0.605195
vn -0.000000 0.715298 -0.698819
vn -0.000000 0.715298 -0.698819
vn -0.000000 0.715298 -0.698819
vn -0.349409 0.715298 -0.605195
vn -0.349409 0.715299 -0.605195
vn -0.349409 0.715299 -0.605195
vn -0.605195 0.715299 -0.349409
vn -0.605195 0.715299 -0.349409
vn -0.605195 0.715299 -0.349409
vn -0.698819 0.715298 0.000000
vn -0.698819 0.715299 0.000000
vn -0.698819 0.715299 0.000000
vn -0.605195 0.715299 0.349409
vn -0.605195 0.715299 0.349409
vn -0.605195 0.715299 0.349409
vn -0.349409 0.715298 0.605195
vn -0.349409 0.715298 0.605195
vn -0.349409 0.715298 0.605195
vn 0.000000 0.715298 0.698819
vn 0.000000 0.715298 0.698819
vn 0.000000 0.715298 0.698819
vn 0.349409 0.715298 0.605195
vn 0.349409 0.715299 0.605195
vn 0.349409 0.715299 0.605195
vn 0.605195 0.715299 0.349409
vn 0.605195 0.715299 0.349409
vn 0.605195 0.715299 0.349409
vn 0.698819 0.715298 0.000000
vn 0.698819 0.715299 0.000000
vn 0.698819 0.715299 0.000000
vn 0.000000 1.000000 -0.000000
vn 0.000000 1.000000 -0.000000
vn 0.000000 1.000000 -0.000000
vn 0.000000 1.000000 -0.000000
vn 0.866025 0.000000 0.500000
vn 0.866025 0.000000 0.500000
vn 0.866025 0.000000 0.500000
vn 0.866025 0.000000 0.500000
vn 0.000000 -1.000000 0.000000
vn 0.000000 -1.000000 0.000000
vn 0.000000 -1.000000 0.000000
vn 0.000000 -1.000000 0.000000
vn -0.866025 0.000000 -0.500000
vn -0.866025 0.000000 -0.500000
vn -0.866025 0.000000 -0.500000
vn -0.866025 0.000000 -0.500000
vn 0.000000 1.000000 0.000000
vn 0.000000 1.000000 0.000000
vn 0.000000 1.000000 0.000000
vn 0.000000 1.000000 0.000000
vn 0.000000 0.000000 -1.000000
vn 0.000000 0.000000 -1.000000
vn 0.000000 0.000000 -1.000000
vn 0.000000 0.000000 -1.000000
vn 0.000000 -1.000000 -0.000000
vn 0.000000 -1.000000 -0.000000
vn 0.000000 -1.000000 -0.000000
vn 0.000000 -1.000000 -0.000000
vn 0.000000 0.000000 1.000000
vn 0.000000 0.000000 1.000000
vn 0.000000 0.000000 1.000000
vn 0.000000 0.000000 1.000000
vn 0.000000 1.000000 -0.000000
vn 0.000000 1.000000 -0.000000
vn 0.000000 1.000000 -0.000000
vn 0.000000 1.000000 -0.000000
vn -0.866026 0.000000 0.500000
vn -0.866026 0.000000 0.500000
vn -0.866026 0.000000 0.500000
vn -0.866026 0.000000 0.500000
vn 0.000000 -1.000000 0.000000
vn 0.000000 -1.000000 0.000000
vn 0.000000 -1.000000 0.000000
vn 0.000000 -1.000000 0.000000
vn 0.866026 0.000000 -0.500000
vn 0.866026 0.000000 -0.500000
vn 0.866026 0.000000 -0.500000
vn 0.866026 0.000000 -0.500000
vn 0.866025 0.000000 -0.500000
vn 0.866025 0.000000 -0.500000
vn 0.866025 0.000000 -0.500000
vn 0.866025 0.000000 -0.500000
vn 0.500000 0.000000 -0.866025
vn 0.500000 0.000000 -0.866025
vn 0.500000 0.000000 -0.866025
vn 0.500000 0.000000 -0.866025
vn 0.000000 0.000000 -1.000000
vn 0.000000 0.000000 -1.000000
vn 0.000000 0.000000 -1.000000
vn 0.000000 0.000000 -1.000000
vn -0.500000 0.000000 -0.866025
vn -0.500000 0.000000 -0.866025
vn -0.500000 0.000000 -0.866025
vn -0.500000 0.000000 -0.866025
vn -0.866025 0.000000 -0.500000
vn -0.866025 0.000000 -0.500000
vn -0.866025 0.000000 -0.500000
vn -0.866025 0.000000 -0.500000
vn -1.000000 0.000000 -0.000000
vn -1.000000 0.000000 -0.000000
vn -1.000000 0.000000 -0.000000
vn -1.000000 0.000000 -0.000000
vn -0.866025 0.000000 0.500000
vn -0.866025 0.000000 0.500000
vn -0.866025 0.000000 0.500000
vn -0.866025 0.000000 0.500000
vn -0.500000 0.000000 0.866025
vn -0.500000 0.000000 0.866025
vn -0.500000 0.000000 0.866025
vn -0.500000 0.000000 0.866025
vn -0.000000 0.000000 1.000000
vn -0.000000 0.000000 1.000000
vn -0.000000 0.000000 1.000000
vn -0.000000 0.000000 1.000000
vn 0.500000 0.000000 0.866025
vn 0.500000 0.000000 0.866025
vn 0.500000 0.000000 0.866025
vn 0.500000 0.000000 0.866025
vn 0.866025 0.000000 0.500000
vn 0.866025 0.000000 0.500000
vn 0.866025 0.000000 0.500000
vn 0.866025 0.000000 0.500000
vn 1.000000 0.000000 0.000000
vn 1.000000 0.000000 0.000000
vn 1.000000 0.000000 0.000000
vn 1.000000 0.000000 0.000000
s 1
g polySurface1
usemtl lambert2SG
f 1/1/1 2/2/2 14/3/3 13/4/4
s off
usemtl lambert3SG
f 50/5/5 51/6/6 52/7/7 53/8/8
s 2
usemtl lambert2SG
f 3/9/9 4/10/10 16/11/11 15/12/12
s 3
f 4/10/13 5/13/14 17/14/15 16/11/16
s 4
f 5/13/17 6/15/18 18/16/19 17/14/20
s off
usemtl lambert3SG
f 54/17/21 55/18/22 56/19/23 57/20/24
s 5
usemtl lambert2SG
f 7/21/25 8/22/26 20/23/27 19/24/28
s 6
f 8/22/29 9/25/30 21/26/31 20/23/32
s 7
f 9/25/33 10/27/34 22/28/35 21/26/36
s off
usemtl lambert3SG
f 58/29/37 59/30/38 60/31/39 61/32/40
s 8
usemtl lambert2SG
f 11/33/41 12/34/42 24/35/43 23/36/44
s 9
f 12/34/45 1/37/46 13/38/47 24/35/48
s 1
f 13/4/4 14/3/3 26/39/49 25/40/50
s off
f 14/3/51 15/12/52 27/41/53 26/39/54
s 2
f 15/12/12 16/11/11 28/42/55 27/41/56
s 3
f 16/11/16 17/14/15 29/43/57 28/42/58
s 4
f 17/14/20 18/16/19 30/44/59 29/43/60
s off
f 18/16/61 19/24/62 31/45/63 30/44/64
s 5
f 19/24/28 20/23/27 32/46/65 31/45/66
s 6
f 20/23/32 21/26/31 33/47/67 32/46/68
s 7
f 21/26/36 22/28/35 34/48/69 33/47/70
s off
f 22/28/71 23/36/72 35/49/73 34/48/74
s 8
f 23/36/44 24/35/43 36/50/75 35/49/76
s 9
f 24/35/48 13/38/47 25/51/77 36/50/78
s 10
f 25/52/79 26/53/80 38/54/81 37/55/82
f 26/56/80 27/57/83 39/58/84 38/59/81
f 27/60/83 28/61/85 40/62/86 39/63/84
f 28/64/85 29/65/87 41/66/88 40/67/86
f 29/68/87 30/69/89 42/70/90 41/71/88
f 30/72/89 31/73/91 43/74/92 42/75/90
f 31/76/91 32/77/93 44/78/94 43/79/92
f 32/80/93 33/81/95 45/82/96 44/83/94
f 33/84/95 34/85/97 46/86/98 45/87/96
f 34/88/97 35/89/99 47/90/100 46/91/98
f 35/92/99 36/93/101 48/94/102 47/95/100
f 36/96/101 25/97/79 37/98/82 48/99/102
s off
f 37/100/103 38/101/104 49/102/105
f 38/101/106 39/103/107 49/102/108
f 39/103/109 40/104/110 49/102/111
f 40/104/112 41/105/113 49/102/114
f 41/105/115 42/106/116 49/102/117
f 42/106/118 43/107/119 49/102/120
f 43/107/121 44/108/122 49/102/123
f 44/108/124 45/109/125 49/102/126
f 45/109/127 46/110/128 49/102/129
f 46/110/130 47/111/131 49/102/132
f 47/111/133 48/112/134 49/102/135
f 48/112/136 37/113/137 49/102/138
f 2/2/139 3/9/140 51/6/141 50/5/142
f 3/9/143 15/12/144 52/7/145 51/6/146
f 15/12/147 14/3/148 53/8/149 52/7/150
f 14/3/151 2/2/152 50/5/153 53/8/154
f 6/15/155 7/21/156 55/18/157 54/17/158
f 7/21/159 19/24/160 56/19/161 55/18/162
f 19/24/163 18/16/164 57/20/165 56/19/166
f 18/16/167 6/15/168 54/17/169 57/20/170
f 10/27/171 11/33/172 59/30/173 58/29/174
f 11/33/175 23/36/176 60/31/177 59/30/178
f 23/36/179 22/28/180 61/32/181 60/31/182
f 22/28/183 10/27/184 58/29/185 61/32/186
f 62/114/187 63/115/188 2/116/189 1/117/190
f 63/115/191 64/118/192 3/119/193 2/116/194
f 64/118/195 65/120/196 4/121/197 3/119/198
f 65/120/199 66/122/200 5/123/201 4/121/202
f 66/122/203 67/124/204 6/125/205 5/123/206
f 67/124/207 68/126/208 7/127/209 6/125/210
f 68/126/211 69/128/212 8/129/213 7/127/214
f 69/128/215 70/130/216 9/131/217 8/129/218
f 70/130/219 71/132/220 10/133/221 9/131/222
f 71/132/223 72/134/224 11/135/225 10/133/226
f 72/134/227 73/136/228 12/137/229 11/135/230
f 73/136/231 62/138/232 1/139/233 12/137/234
